<svg width="97" height="97" viewBox="0 0 97 97" fill="none" xmlns="http://www.w3.org/2000/svg">
<path d="M42.3589 0L36.3249 14.361C35.1181 14.723 34.0319 15.3264 32.9458 15.9298L18.5848 9.89581L9.89581 18.5848L15.9298 32.9458C15.3264 34.1526 14.8437 35.1181 14.361 36.3249L0 42.3589V54.427L14.361 60.461C14.8437 61.6678 15.3264 62.6333 15.9298 63.8401L9.89581 78.201L18.5848 86.8901L32.9458 80.856C34.0319 81.3387 35.1181 81.9422 36.3249 82.4249L42.3589 96.7859H54.427L60.461 82.4249C61.5471 81.9422 62.7539 81.4594 63.8401 80.856L78.201 86.8901L86.8901 78.201L80.856 63.8401C81.3388 62.7539 81.9422 61.5471 82.4249 60.461L96.7859 54.427V42.3589L82.4249 36.3249C82.0628 35.2387 81.4594 34.0319 80.856 32.9458L86.8901 18.5848L78.201 9.89581L63.8401 15.9298C62.7539 15.4471 61.5471 14.8437 60.461 14.361L54.427 0L42.3589 0ZM48.3929 30.1702C58.4094 30.1702 66.495 38.2558 66.495 48.2723C66.495 58.2887 58.4094 66.3744 48.3929 66.3744C38.3764 66.3744 30.2908 58.2887 30.2908 48.2723C30.2908 38.2558 38.3764 30.1702 48.3929 30.1702Z" fill="#FE8517"/>
</svg>
